 <svg  version="1.0" xmlns="http://www.w3.org/2000/svg"  width="300.000000pt" height="200.000000pt" viewBox="0 0 300.000000 300.000000"  preserveAspectRatio="xMidYMid meet">  <g transform="translate(0.000000,300.000000) scale(0.100000,-0.100000)" fill="#e01b24" stroke="none"> <path d="M1510 2200 c-8 -5 -18 -6 -23 -3 -5 3 -7 -3 -5 -13 4 -19 -30 -54 -52 -54 -8 0 -9 -10 -5 -31 6 -24 4 -30 -6 -27 -21 8 -49 -10 -49 -30 1 -16 2 -16 14 1 7 9 20 17 28 17 12 0 14 -22 14 -122 l-1 -123 -95 0 -95 0 2 25 c2 14 3 59 2 101 0 63 3 78 21 94 11 10 20 14 20 9 0 -5 19 -24 41 -43 39 -32 41 -33 61 -15 11 11 23 18 27 17 3 -1 8 1 10 3 2 2 -4 4 -14 4 -15 0 -16 3 -5 18 7 9 1 5 -13 -10 l-25 -26 -30 28 c-17 15 -37 30 -44 33 -9 4 -7 9 7 20 43 32 73 65 67 73 -4 4 1 4 10 1 13 -4 15 -2 11 10 -5 13 -2 15 11 10 11 -5 16 -3 14 5 -8 24 -25 17 -98 -42 -41 -33 -78 -60 -82 -60 -7 0 -19 -83 -21 -142 -1 -34 -2 -35 -28 -28 -27 8 -28 7 -31 -38 -3 -44 -5 -47 -35 -52 -28 -4 -30 -7 -18 -23 11 -16 13 -16 19 -1 3 9 13 14 20 11 19 -7 50 41 48 71 -1 15 3 22 11 19 6 -2 11 -14 11 -25 -1 -12 3 -22 7 -22 5 0 9 -9 9 -19 0 -17 17 -28 53 -37 4 -1 9 -2 11 -3 3 0 0 -15 -6 -32 -7 -21 -13 -27 -18 -18 -6 8 -24 10 -65 5 -33 -4 -54 -3 -51 3 3 5 -1 14 -9 21 -12 10 -15 9 -15 -4 0 -12 -6 -16 -18 -12 -16 6 -49 6 -127 4 -16 -1 -50 2 -75 5 -31 5 -37 4 -20 -2 82 -29 84 -31 68 -48 -17 -16 -38 -10 -38 11 0 14 -29 25 -70 27 -23 0 -24 1 -5 10 14 6 5 7 -27 3 -27 -4 -48 -2 -48 3 0 5 -7 18 -15 29 -14 17 -14 16 0 -13 20 -42 19 -43 -9 -43 -15 0 -27 7 -31 19 -3 11 -12 24 -20 31 -11 9 -12 7 -8 -9 4 -15 0 -20 -13 -19 -11 0 -31 -2 -45 -6 -16 -5 -29 -3 -33 3 -10 15 -65 -8 -83 -35 -11 -18 -13 -28 -4 -37 6 -8 8 -17 4 -21 -4 -4 -6 -23 -4 -43 2 -28 0 -35 -12 -30 -11 4 -13 0 -9 -15 3 -14 -4 -28 -24 -45 -22 -19 -23 -21 -4 -9 30 20 67 22 53 4 -5 -7 -8 -32 -7 -55 1 -34 -2 -42 -20 -48 -17 -5 -18 -7 -6 -13 21 -9 28 -92 8 -92 -10 0 -9 -3 2 -10 12 -8 9 -16 -20 -47 -23 -25 -25 -29 -7 -13 l28 24 24 -27 c14 -14 25 -32 25 -38 0 -8 7 -6 19 5 15 13 20 14 23 4 4 -11 8 -11 20 0 10 8 24 10 39 4 26 -9 72 -8 114 2 16 4 25 2 25 -5 0 -8 4 -8 15 1 13 11 15 8 16 -16 l1 -29 9 27 c10 25 13 26 64 21 37 -4 60 -2 70 7 23 19 18 0 -7 -29 l-23 -24 38 23 38 23 32 -31 c24 -23 43 -32 77 -34 l45 -3 0 -42 c0 -24 1 -43 2 -43 1 0 14 5 28 12 20 9 28 9 38 -1 9 -10 6 -17 -16 -33 -15 -11 -32 -30 -38 -41 -9 -20 -9 -20 10 2 23 25 25 23 35 -38 4 -22 26 -55 68 -100 85 -92 130 -123 162 -115 14 3 23 10 20 15 -8 13 -10 279 -2 279 4 0 16 -12 27 -26 23 -29 26 -68 12 -124 -14 -53 -22 -130 -13 -128 4 1 17 -3 29 -10 20 -11 28 -8 70 24 55 41 168 154 155 154 -5 0 -7 14 -4 30 2 17 10 30 18 30 11 0 9 7 -7 29 -16 21 -20 38 -16 66 3 21 -1 52 -9 71 -16 37 -14 38 36 24 29 -8 39 -7 60 8 50 37 54 34 13 -9 -55 -57 -57 -84 -8 -76 40 7 44 -2 15 -28 -24 -22 -27 -43 -3 -24 15 12 16 12 10 -4 -6 -15 -4 -16 14 -7 17 10 18 14 7 27 -10 13 -8 19 15 37 33 26 36 41 5 25 -34 -18 -90 -19 -83 -2 3 8 5 17 5 19 0 2 23 4 50 4 39 0 50 3 50 16 0 13 -7 15 -30 11 -34 -7 -40 7 -9 23 20 11 41 3 61 -25 5 -6 8 -6 8 2 0 15 47 30 90 27 19 -1 45 2 57 7 31 12 29 1 -9 -40 -20 -21 -23 -27 -7 -13 14 12 32 22 40 22 8 0 21 6 28 12 11 10 14 10 18 1 5 -15 33 -18 33 -4 0 12 59 20 90 11 14 -4 58 -4 98 0 98 10 112 23 112 108 0 48 5 71 17 84 17 19 16 19 -10 13 l-28 -7 14 35 c10 24 12 38 5 45 -6 6 -7 16 -2 23 4 7 7 58 5 114 -3 116 -11 131 -81 140 -24 3 -48 11 -52 18 -5 8 -8 7 -8 -5 0 -11 -8 -18 -20 -18 -11 0 -20 5 -20 12 0 9 -3 9 -12 0 -19 -19 -55 -14 -78 11 l-21 22 10 -27 c10 -27 -1 -40 -14 -18 -4 6 -16 8 -28 4 -12 -4 -73 -8 -135 -8 -98 -1 -113 1 -118 16 -5 16 -7 16 -33 -3 -26 -19 -33 -20 -90 -9 -34 6 -66 8 -71 5 -26 -16 -56 -13 -77 7 -24 23 -33 48 -9 29 29 -24 127 14 109 42 -4 6 2 8 14 5 16 -4 19 -1 16 13 -3 10 -11 15 -19 12 -11 -4 -13 11 -11 79 l2 83 -59 58 c-59 57 -64 67 -23 46 35 -18 297 -282 290 -292 -3 -6 -1 -7 4 -4 6 4 16 0 23 -8 10 -12 34 -15 109 -13 l96 1 -96 6 -97 6 -160 163 c-89 89 -167 162 -174 162 -7 0 -29 11 -48 24 -45 30 -71 38 -90 26z m23 -27 c-5 -12 -2 -15 9 -10 23 8 56 -29 40 -45 -7 -7 -12 -17 -12 -22 0 -6 7 -2 16 9 14 19 16 18 67 -33 l52 -52 0 -103 0 -102 -92 -1 -92 -1 0 113 -1 113 25 -9 c16 -6 25 -6 25 0 0 5 -11 12 -23 16 -21 5 -24 12 -26 61 -1 31 -4 60 -7 64 -7 12 5 31 16 24 5 -3 6 -13 3 -22z m-52 -87 c2 -32 -1 -51 -9 -54 -13 -4 -18 89 -5 101 10 10 11 6 14 -47z m-13 -131 l-12 -27 -8 28 c-5 19 -3 31 5 36 20 12 29 -7 15 -37z m19 -105 c2 -19 9 -40 17 -45 8 -6 10 -18 6 -30 -5 -14 -2 -22 9 -27 10 -5 3 -7 -18 -5 -44 3 -52 -19 -9 -25 18 -2 162 -3 321 -3 168 1 281 -3 272 -8 -9 -5 -35 -6 -58 -3 -23 3 -35 3 -27 0 31 -13 40 -38 40 -118 0 -57 -4 -84 -15 -96 -14 -15 -14 -18 0 -30 12 -10 15 -35 15 -114 l0 -101 35 -1 c28 0 31 2 19 11 -12 8 -18 36 -21 98 l-6 87 41 0 41 0 3 -67 c4 -87 22 -88 26 -2 l3 67 -46 27 c-51 29 -65 55 -65 119 0 67 11 106 32 117 11 6 95 12 187 14 l166 4 0 -242 0 -242 -470 -2 c-259 -1 -483 -2 -500 -3 -26 -2 -27 -3 -10 -10 17 -7 18 -9 4 -15 -9 -3 -24 -24 -34 -46 -19 -41 -32 -49 -41 -25 -9 23 -94 46 -94 26 0 -6 5 -10 10 -10 6 0 10 -7 10 -15 0 -9 -9 -15 -22 -15 -15 0 -19 3 -11 8 7 4 10 17 6 30 -4 17 -8 20 -19 11 -7 -6 -21 -9 -31 -7 -29 5 -54 -22 -42 -45 6 -10 9 -21 6 -23 -7 -7 -79 70 -89 96 l-10 25 -9 -24 c-6 -15 -14 -21 -24 -17 -8 3 -15 0 -15 -7 -1 -7 -10 -1 -20 12 -22 26 -27 46 -8 35 22 -14 57 -13 69 2 10 13 16 11 43 -13 l31 -28 -24 28 c-14 16 -19 27 -12 27 7 0 22 -10 33 -22 12 -14 18 -17 15 -8 -4 13 4 16 47 14 28 -1 61 -4 73 -7 16 -4 31 3 52 22 25 24 29 33 25 69 -3 34 -1 40 12 35 8 -3 13 -11 10 -18 -3 -8 1 -16 9 -19 7 -2 15 -20 18 -38 2 -18 4 80 5 217 1 164 -2 244 -8 234 -6 -10 -8 -31 -6 -48 3 -28 1 -31 -25 -31 -19 0 -29 5 -29 15 0 8 5 15 12 15 9 0 9 3 0 12 -7 7 -8 17 -1 30 8 14 6 18 -8 19 -10 1 0 5 22 9 l40 6 -28 12 c-16 7 -44 13 -63 15 -48 3 -36 21 14 22 54 1 90 35 84 78 -4 24 -1 28 14 25 13 -2 19 -13 21 -38z m113 -87 c0 -10 -6 -13 -16 -9 -9 3 -20 6 -25 6 -5 0 -9 4 -9 9 0 5 11 9 25 9 15 0 25 -6 25 -15z m-998 -143 c-4 -79 -3 -90 12 -90 14 0 16 13 16 90 l0 90 40 0 40 0 0 -233 0 -232 -40 0 -40 0 0 112 c0 97 -2 113 -16 113 -14 0 -16 -14 -12 -109 l3 -109 -37 -4 -38 -4 0 233 0 233 39 0 38 0 -5 -90z m293 8 c4 -46 13 -141 21 -213 19 -181 21 -170 -23 -169 l-38 1 -3 52 c-2 36 -7 51 -18 51 -9 0 -14 -12 -15 -37 -1 -55 -10 -68 -46 -68 -40 0 -39 -15 -13 245 11 107 20 201 20 208 0 8 17 12 54 12 l54 0 7 -82z m229 66 c11 -11 16 -35 16 -80 l0 -64 -41 0 -41 0 4 47 c2 30 -1 48 -9 50 -10 4 -13 -35 -13 -172 0 -137 3 -176 13 -172 8 3 11 24 9 70 l-3 67 41 0 40 0 0 -84 c0 -102 -8 -111 -92 -111 -88 0 -88 0 -88 236 0 193 1 198 22 213 30 21 121 21 142 0z m127 -81 l2 -98 15 98 15 97 40 0 c36 0 39 -2 34 -22 -41 -172 -41 -179 -17 -307 12 -66 22 -124 21 -127 0 -4 -18 -7 -38 -7 l-38 0 -12 99 c-18 141 -21 143 -22 14 l-1 -115 -36 1 -36 1 -2 232 -1 231 38 0 37 0 1 -97z m164 -33 c-3 -6 1 -13 10 -16 10 -4 12 -10 6 -18 -6 -7 -6 -17 -1 -26 6 -8 10 -23 10 -33 0 -15 -3 -16 -20 -7 -17 9 -20 18 -15 48 5 35 4 35 -6 10 -6 -16 -15 -28 -20 -28 -17 0 -9 -21 19 -48 32 -30 48 -62 30 -62 -7 0 -7 -5 2 -15 15 -18 -6 -44 -32 -38 -19 5 -33 33 -17 33 6 0 4 7 -5 15 -8 9 -13 22 -9 30 3 9 -1 30 -8 47 -10 24 -10 33 -1 36 7 2 12 10 12 18 0 9 -5 12 -11 8 -7 -4 -10 1 -7 12 2 11 13 20 26 22 12 2 20 8 16 13 -3 6 -3 18 1 27 6 16 7 16 16 -1 6 -9 7 -22 4 -27z m96 -427 c-9 -15 -10 -13 -11 13 0 17 3 34 8 38 11 12 14 -32 3 -51z m172 45 c2 -7 2 -19 -1 -26 -4 -11 -6 -11 -13 0 -7 10 -9 10 -9 1 0 -7 -7 -13 -16 -13 -14 0 -14 3 -4 15 9 10 9 15 1 15 -6 0 -11 5 -11 10 0 15 48 12 53 -2z m-203 -67 c-11 -42 -30 -47 -30 -9 0 21 29 62 37 54 2 -2 -1 -23 -7 -45z m-210 5 c0 -8 -4 -18 -10 -21 -5 -3 -10 -13 -10 -22 0 -9 3 -13 8 -9 4 4 7 12 7 17 0 9 11 10 33 2 16 -7 42 15 42 36 1 14 2 14 14 -1 7 -10 22 -18 33 -18 13 0 25 -10 32 -28 15 -35 12 -224 -3 -235 -8 -6 -7 -10 2 -14 13 -5 17 -69 4 -77 -4 -2 -34 23 -67 56 -42 42 -53 58 -37 53 19 -5 22 -3 22 18 0 14 -7 30 -15 37 -8 7 -15 19 -15 26 0 8 -4 14 -10 14 -15 0 -12 -9 10 -37 11 -14 20 -30 20 -34 0 -17 -44 -9 -67 13 -19 18 -23 32 -23 79 l0 58 36 -24 c20 -14 43 -33 49 -42 12 -16 15 -16 32 -2 10 9 24 14 31 12 6 -3 12 0 12 6 0 6 -6 11 -12 11 -8 0 -5 7 6 15 11 8 14 15 7 15 -6 0 -22 -10 -35 -23 -19 -19 -27 -21 -40 -12 -8 7 -13 14 -11 17 3 3 -8 11 -24 18 -52 21 -67 53 -52 108 3 10 31 -1 31 -12z m346 -7 c12 -12 27 -18 33 -14 16 10 13 28 -4 22 -8 -4 -17 -2 -20 3 -4 6 13 10 39 10 34 0 46 -4 46 -15 0 -8 -8 -15 -19 -15 -23 0 -47 -25 -31 -35 5 -3 10 -15 10 -26 0 -16 4 -19 20 -14 20 6 20 3 15 -51 -6 -62 -36 -109 -63 -99 -9 3 -12 0 -9 -9 3 -7 -10 -28 -29 -47 -26 -26 -37 -30 -46 -21 -7 7 -16 12 -22 12 -5 0 -1 -6 9 -14 19 -14 19 -15 1 -35 -11 -12 -22 -19 -25 -16 -8 8 -10 35 -3 35 4 0 5 23 3 51 -2 40 1 53 15 64 18 13 18 14 2 15 -12 0 -18 8 -18 25 0 25 23 35 35 15 3 -5 11 -10 17 -10 7 0 6 6 -2 15 -7 8 -21 15 -31 15 -13 0 -19 7 -19 21 0 15 5 19 15 15 8 -3 15 -1 15 3 0 5 -7 11 -15 15 -15 6 -22 86 -8 99 14 15 68 6 89 -14z m94 -45 c0 -31 -22 -28 -27 4 -2 14 2 22 12 22 9 0 15 -10 15 -26z"/> <path d="M1612 2004 c15 -7 34 -11 42 -8 28 11 17 20 -26 21 -43 2 -43 2 -16 -13z"/> <path d="M1540 1998 c0 -12 49 -42 57 -34 2 2 -10 14 -26 26 -21 14 -31 17 -31 8z"/> <path d="M1550 1935 c-16 -19 -5 -32 14 -16 11 9 15 9 19 -1 3 -8 6 -8 6 -2 1 6 -5 17 -13 23 -10 9 -16 8 -26 -4z"/> <path d="M1628 1922 c-14 -3 -18 -13 -17 -45 l1 -42 8 34 c4 18 14 37 21 42 17 10 9 17 -13 11z"/> <path d="M1567 1702 c-7 -14 5 -303 13 -295 4 4 10 72 13 150 4 114 2 143 -9 147 -7 3 -15 2 -17 -2z"/> <path d="M1677 1703 c-2 -5 -10 -60 -16 -123 -7 -63 -17 -148 -22 -188 -5 -40 -9 -88 -9 -106 0 -28 3 -32 28 -31 15 0 30 5 34 10 11 15 10 433 -1 440 -5 3 -12 2 -14 -2z"/> <path d="M1826 1692 c-4 -11 -5 -26 -4 -33 2 -7 -7 -13 -21 -13 -21 -1 -23 -5 -25 -59 -1 -52 1 -57 20 -57 16 0 23 -7 26 -30 4 -25 1 -29 -20 -32 -23 -3 -24 -7 -25 -81 -2 -73 -1 -77 20 -77 16 0 22 -7 25 -27 2 -17 9 -28 18 -28 13 0 15 32 15 224 0 162 -3 225 -12 228 -6 2 -14 -5 -17 -15z"/> <path d="M2233 1697 c16 -13 29 -140 14 -144 -4 -2 -20 -3 -36 -3 -28 0 -30 2 -33 48 -4 63 -23 56 -23 -10 0 -51 1 -52 45 -78 l45 -26 3 -110 c2 -95 0 -111 -15 -123 -17 -13 -17 -13 0 -7 10 3 27 6 38 6 18 0 19 10 19 228 l0 227 -36 2 c-30 1 -33 0 -21 -10z"/> <path d="M1470 1680 c0 -14 4 -74 9 -135 6 -60 13 -146 16 -190 4 -54 11 -85 22 -95 17 -17 18 -38 -13 270 -9 85 -20 159 -25 165 -5 5 -9 -1 -9 -15z"/> <path d="M2422 1672 c-2 -29 -4 -32 -27 -26 -25 6 -25 5 -25 -55 0 -58 1 -61 25 -61 22 0 25 -4 25 -34 0 -30 -2 -33 -25 -28 l-25 4 0 -81 c0 -80 0 -81 25 -81 21 0 25 -5 26 -32 2 -32 2 -32 6 -5 3 16 -3 44 -11 62 -20 41 -20 72 -1 109 19 36 19 85 0 110 -19 26 -19 51 1 70 10 10 14 28 11 48 l-4 33 -1 -33z"/> <path d="M1939 1646 c-5 -52 1 -141 10 -144 14 -5 15 134 1 143 -5 3 -10 4 -11 1z"/> <path d="M1939 1436 c-8 -9 3 -196 12 -196 5 0 9 45 9 100 0 88 -5 111 -21 96z"/> <path d="M830 1583 c0 -16 -3 -64 -6 -106 -6 -66 -5 -77 9 -77 13 0 14 14 10 103 -5 97 -13 145 -13 80z"/> <path d="M1367 1062 c-24 -26 -21 -39 3 -17 11 10 26 15 36 11 14 -5 15 -4 4 9 -16 19 -23 19 -43 -3z"/> <path d="M1371 893 c1 -21 5 -49 9 -63 6 -18 8 -8 8 38 -1 34 -5 62 -9 62 -5 0 -9 -17 -8 -37z"/> <path d="M1577 1082 c-22 -24 -22 -46 -1 -38 9 3 20 6 25 6 6 0 7 5 4 11 -4 6 -14 8 -23 4 -13 -5 -12 -2 3 15 10 11 16 20 13 20 -3 0 -12 -8 -21 -18z"/> <path d="M1570 1015 c0 -13 51 -24 72 -15 13 5 21 9 18 10 -15 5 -90 9 -90 5z"/> <path d="M1105 1968 c-44 -45 -71 -75 -60 -68 31 22 153 150 143 150 -2 0 -39 -37 -83 -82z"/> <path d="M1326 1935 c15 -20 24 -38 21 -41 -9 -9 -68 7 -61 17 3 5 1 9 -5 9 -5 0 -9 -9 -8 -20 1 -15 8 -20 28 -20 15 0 34 -3 43 -6 25 -10 19 37 -9 69 -34 39 -41 33 -9 -8z"/> <path d="M1776 1926 c-13 -34 -15 -50 -7 -65 6 -11 9 -26 6 -33 -3 -7 5 -25 17 -41 l23 -27 12 25 c9 20 8 25 -3 25 -8 0 -14 7 -14 15 0 8 -3 15 -7 15 -5 0 -9 16 -11 36 -3 44 18 42 33 -4 16 -46 25 -50 18 -6 -5 32 -38 104 -48 104 -1 0 -10 -20 -19 -44z"/> <path d="M1116 1917 c-11 -17 -20 -36 -20 -42 -1 -5 -13 -11 -28 -13 -19 -2 -25 -8 -21 -18 3 -7 9 -11 14 -8 6 3 16 1 24 -6 11 -9 12 -7 8 12 -4 23 -4 23 13 3 16 -20 16 -20 11 4 -3 13 1 34 9 47 9 13 14 30 12 38 -2 11 -9 6 -22 -17z"/> <path d="M1939 1103 c-27 -25 -47 -48 -44 -51 3 -3 19 9 36 27 16 18 47 41 67 52 31 15 33 18 14 19 -14 0 -43 -18 -73 -47z"/> <path d="M1040 1135 c0 -5 15 -24 33 -43 20 -22 28 -36 20 -39 -10 -3 -10 -7 0 -17 9 -10 16 -10 29 -2 16 10 15 13 -13 42 -19 20 -27 34 -20 38 6 4 11 13 11 19 0 7 -5 4 -11 -6 -10 -18 -12 -18 -30 -1 -10 9 -19 13 -19 9z"/> </g> </svg> 